<?xml version="1.0" standalone="no"?>
<!DOCTYPE svg PUBLIC "-//W3C//DTD SVG 20010904//EN"
 "http://www.w3.org/TR/2001/REC-SVG-20010904/DTD/svg10.dtd">
<svg version="1.0" xmlns="http://www.w3.org/2000/svg"
 width="260.000000pt" height="260.000000pt" viewBox="0 0 260.000000 260.000000"
 preserveAspectRatio="xMidYMid meet">
<metadata>
Created by potrace 1.11, written by Peter Selinger 2001-2013
</metadata>
<g transform="translate(0.000000,260.000000) scale(0.100000,-0.100000)"
fill="#000000" stroke="none">
<path d="M220 2545 l0 -55 -55 0 -55 0 0 -55 0 -55 -55 0 -55 0 0 -1080 0
-1080 55 0 55 0 0 -55 0 -55 55 0 55 0 0 -55 0 -55 1080 0 1080 0 0 55 0 55
55 0 55 0 0 55 0 55 55 0 55 0 0 1080 0 1080 -55 0 -55 0 0 55 0 55 -55 0 -55
0 0 55 0 55 -1080 0 -1080 0 0 -55z m1620 -430 l0 -55 -55 0 -55 0 0 -55 0
-55 165 0 165 0 0 -55 0 -55 55 0 55 0 0 -105 0 -105 -165 0 -165 0 0 -325 0
-325 55 0 55 0 0 -110 0 -110 -55 0 -55 0 0 -55 0 -55 -55 0 -55 0 0 55 0 55
-55 0 -55 0 0 -55 0 -55 -50 0 -50 0 0 55 0 55 50 0 50 0 0 110 0 110 -375 0
-375 0 0 -110 0 -110 -55 0 -55 0 0 -55 0 -55 -55 0 -55 0 0 55 0 55 -55 0
-55 0 0 -55 0 -55 -55 0 -55 0 0 55 0 55 55 0 55 0 0 110 0 110 55 0 55 0 0
160 0 160 -55 0 -55 0 0 110 0 110 110 0 110 0 0 -55 0 -55 215 0 215 0 0 55
0 55 165 0 165 0 0 215 0 215 50 0 50 0 0 110 0 110 110 0 110 0 0 -55z"/>
<path d="M1840 1785 l0 -55 55 0 55 0 0 55 0 55 -55 0 -55 0 0 -55z"/>
<path d="M650 870 l0 -110 55 0 55 0 0 110 0 110 -55 0 -55 0 0 -110z"/>
<path d="M1730 870 l0 -110 55 0 55 0 0 110 0 110 -55 0 -55 0 0 -110z"/>
</g>
</svg>
